<?xml version="1.0" standalone="no"?>
<!DOCTYPE svg PUBLIC "-//W3C//DTD SVG 20010904//EN"
 "http://www.w3.org/TR/2001/REC-SVG-20010904/DTD/svg10.dtd">
<svg version="1.0" xmlns="http://www.w3.org/2000/svg"
 width="320.000000pt" height="320.000000pt" viewBox="0 0 320.000000 320.000000"
 preserveAspectRatio="xMidYMid meet">
<metadata>
Created by potrace 1.14, written by Peter Selinger 2001-2017
</metadata>
<g transform="translate(0.000000,320.000000) scale(0.100000,-0.100000)"
fill="#000000" stroke="none">
<path d="M0 1600 l0 -1600 1600 0 1600 0 0 1600 0 1600 -1600 0 -1600 0 0
-1600z m1920 1336 c463 -88 695 -276 796 -646 38 -137 43 -234 44 -727 l0
-482 103 -3 102 -3 -1 -37 c0 -21 -1 -191 -2 -378 l-2 -340 -610 0 -610 0 0
156 0 156 -76 -81 c-42 -44 -103 -102 -137 -127 -73 -55 -197 -117 -282 -140
-81 -22 -314 -30 -414 -14 -268 43 -453 193 -538 435 -26 76 -28 89 -28 255 0
179 2 190 48 310 52 138 178 279 324 365 156 91 395 165 643 199 98 14 364 35
438 36 51 0 10 124 -61 186 -62 52 -145 74 -312 81 -175 7 -365 -9 -560 -48
-120 -24 -314 -76 -392 -106 -10 -4 -13 85 -13 424 l0 430 163 31 c226 44 431
74 587 86 25 2 194 2 375 1 250 -3 350 -7 415 -19z"/>
<path d="M1575 1396 c-107 -19 -148 -33 -193 -66 -64 -46 -89 -111 -76 -196
21 -139 205 -192 320 -92 66 58 118 204 112 312 l-3 51 -45 2 c-25 1 -76 -4
-115 -11z"/>
</g>
</svg>
